<?xml version="1.0" encoding="UTF-8" standalone="no"?>
<svg
   xmlns:dc="http://purl.org/dc/elements/1.1/"
   xmlns:cc="http://creativecommons.org/ns#"
   xmlns:rdf="http://www.w3.org/1999/02/22-rdf-syntax-ns#"
   xmlns:svg="http://www.w3.org/2000/svg"
   xmlns="http://www.w3.org/2000/svg"
   xmlns:sodipodi="http://sodipodi.sourceforge.net/DTD/sodipodi-0.dtd"
   xmlns:inkscape="http://www.inkscape.org/namespaces/inkscape"
   sodipodi:docname="Pen.svg"
   inkscape:version="1.0 (4035a4f, 2020-05-01)"
   id="svg8"
   version="1.1"
   viewBox="0 0 61.912498 90.365509"
   height="90.365509mm"
   width="61.912498mm">
  <defs
     id="defs2" />
  <sodipodi:namedview
     inkscape:window-maximized="1"
     inkscape:window-y="28"
     inkscape:window-x="0"
     inkscape:window-height="669"
     inkscape:window-width="1366"
     fit-margin-bottom="0"
     fit-margin-right="0"
     fit-margin-left="0"
     fit-margin-top="0"
     showgrid="false"
     inkscape:document-rotation="0"
     inkscape:current-layer="layer1"
     inkscape:document-units="mm"
     inkscape:cy="87.251848"
     inkscape:cx="-61.096461"
     inkscape:zoom="0.47059177"
     inkscape:pageshadow="2"
     inkscape:pageopacity="0.0"
     borderopacity="1.0"
     bordercolor="#666666"
     pagecolor="#ffffff"
     id="base" />
  <metadata
     id="metadata5">
    <rdf:RDF>
      <cc:Work
         rdf:about="">
        <dc:format>image/svg+xml</dc:format>
        <dc:type
           rdf:resource="http://purl.org/dc/dcmitype/StillImage" />
        <dc:title></dc:title>
      </cc:Work>
    </rdf:RDF>
  </metadata>
  <g
     transform="translate(-114.7585,-194.57049)"
     id="layer1"
     inkscape:groupmode="layer"
     inkscape:label="Layer 1">
    <path
       id="path851"
       d="m 158.67933,218.11841 c -3.39434,0.54133 0.39741,3.01969 1.85209,3.43958 v 0.26458 c -1.27582,-0.0548 -4.65879,-1.00779 -5.59568,0.15955 -0.74109,0.92366 0.71359,2.01956 1.3634,2.45851 2.11614,1.42954 4.87971,2.56487 7.40728,2.93819 v 0.26459 c -3.36841,-0.43498 -6.68973,-1.28456 -10.05417,-1.78012 -0.73978,-0.10901 -2.86438,-0.77232 -3.2041,0.26538 -0.44583,1.36207 2.85855,2.42226 3.73327,2.79797 4.47489,1.92193 9.05298,3.31972 13.75833,4.5376 -7.48453,10.09703 -17.7255,20.41948 -17.72708,33.86667 -10.68195,-0.84297 -20.94101,5.16784 -29.10417,11.64166 3.16836,-4.55136 7.17666,-8.67172 10.69562,-12.96458 1.16369,-1.41975 3.62548,-3.38905 3.59188,-5.29167 h -0.26458 l -2.64584,3.175 17.57469,-23.28333 6.76698,-8.73125 c -3.74333,1.76027 -7.04321,7.67953 -9.68005,10.84792 -7.90268,9.49483 -15.10987,19.33813 -22.29739,29.36875 -1.94225,2.71039 -3.9344,5.45623 -6.16767,7.9375 -1.36025,1.5113 -3.25208,2.78712 -3.92364,4.7625 2.21888,0.82073 3.31793,-2.11561 4.76639,-3.35333 3.65001,-3.11944 8.26381,-5.55705 12.43153,-7.91157 4.04921,-2.28759 8.60769,-4.44924 13.22916,-5.20436 1.42902,-0.23362 2.82549,-0.28337 4.23334,0.11007 0.6178,0.17251 1.6256,0.78422 2.22064,0.29025 0.76148,-0.63209 0.16114,-2.63816 0.16114,-3.51023 0,-2.60932 0.80221,-5.28399 1.81768,-7.67292 2.28574,-5.37818 5.5462,-10.38886 8.99901,-15.08125 2.2733,-3.08927 5.15435,-6.23199 6.64528,-9.78958 l -10.31875,-3.02551 -5.82084,-2.26616 v -0.26458 l 19.31459,2.64583 0.26458,-1.05833 c -5.33374,-1.7055 -12.08802,-2.21139 -16.40417,-6.08542 l 18.25625,2.91042 c -0.27887,-1.68645 -2.00924,-1.72561 -3.43958,-2.08306 -3.89493,-0.97367 -7.56285,-2.37438 -11.37708,-3.47319 v -0.26458 c 5.44089,1.24724 10.51427,2.64583 16.13958,2.64583 v -1.5875 c -3.94758,-0.74374 -7.98804,-1.08744 -11.90625,-1.96453 -1.74546,-0.39079 -3.80709,-0.93028 -4.83076,-2.53746 -1.49331,-2.34453 0.82814,-5.60187 2.24075,-7.40426 4.38256,-5.59099 10.51534,-9.17914 15.29001,-14.2875 -2.16191,0.078 -4.67863,2.77884 -6.35,4.08104 -4.14523,3.22958 -8.61034,6.57241 -11.54748,11.00021 -1.84943,2.78791 -2.46671,5.82131 -0.0942,8.46667 m -5.55625,8.73125 -0.26458,0.26458 0.26458,-0.26458 m -20.6375,37.04166 -2.64583,3.175 2.64583,-3.175 m -2.64583,3.43959 -0.79375,0.79375 z"
       style="fill:#0d0e0d;stroke:none;stroke-width:0.264583" />
  </g>
</svg>
